<?xml version="1.0" standalone="no"?>
<!DOCTYPE svg PUBLIC "-//W3C//DTD SVG 20010904//EN"
 "http://www.w3.org/TR/2001/REC-SVG-20010904/DTD/svg10.dtd">
<svg version="1.0" xmlns="http://www.w3.org/2000/svg"
 width="50.000000pt" height="50.000000pt" viewBox="0 0 50.000000 50.000000"
 preserveAspectRatio="xMidYMid meet">

<g transform="translate(0.000000,50.000000) scale(0.100000,-0.100000)"
fill="#000000" stroke="none">
<path d="M450 436 c0 -53 -11 -73 -23 -41 -3 7 -30 28 -59 44 -71 41 -150 43
-225 6 -116 -58 -159 -207 -94 -320 87 -152 302 -159 398 -13 24 36 28 52 29
122 1 45 0 63 -3 41 -2 -22 -14 -50 -25 -62 -11 -12 -17 -26 -14 -31 3 -5 -3
-21 -14 -35 -25 -31 -75 -32 -75 -1 0 23 44 76 57 68 5 -3 18 2 29 12 14 13
19 30 19 71 0 29 5 53 10 53 6 0 10 28 10 64 0 36 -4 68 -10 71 -6 4 -10 -15
-10 -49z m-139 -135 c39 -40 39 -82 0 -122 -20 -20 -39 -29 -61 -29 -43 0 -90
47 -90 90 0 43 47 90 90 90 22 0 41 -9 61 -29z"/>
<path d="M205 285 c-30 -30 -31 -54 -4 -89 26 -33 68 -34 97 -3 30 32 28 71
-4 96 -35 27 -59 26 -89 -4z m74 -29 c23 -28 -17 -68 -45 -45 -15 12 -19 41
-7 52 11 12 40 8 52 -7z"/>
<path d="M377 184 c-14 -14 -7 -35 11 -32 9 2 17 10 17 17 0 16 -18 25 -28 15z"/>
</g>
</svg>
