<?xml version="1.0" standalone="no"?>
<!DOCTYPE svg PUBLIC "-//W3C//DTD SVG 20010904//EN"
 "http://www.w3.org/TR/2001/REC-SVG-20010904/DTD/svg10.dtd">
<svg version="1.0" xmlns="http://www.w3.org/2000/svg"
 width="50.000000pt" height="50.000000pt" viewBox="0 0 50.000000 50.000000"
 preserveAspectRatio="xMidYMid meet">

<g transform="translate(0.000000,50.000000) scale(0.100000,-0.100000)"
fill="#000000" stroke="none">
<path d="M0 250 l0 -250 185 0 185 0 -2 103 -2 102 -5 -95 -6 -95 -167 -3
-168 -2 0 240 0 240 115 0 115 0 0 -50 c0 -56 0 -56 73 -63 32 -3 47 -1 47 7
0 6 -24 35 -53 64 l-53 52 -132 0 -132 0 0 -250z"/>
<path d="M421 418 c-11 -13 -41 -51 -66 -85 l-45 -63 -85 0 c-50 0 -85 -4 -85
-10 0 -6 32 -10 76 -10 47 0 73 -4 69 -10 -3 -5 -37 -10 -76 -10 -39 0 -69 -4
-69 -10 0 -6 27 -10 62 -10 60 0 61 0 43 -20 -13 -14 -32 -20 -69 -22 -50 -1
-50 -2 -8 -5 51 -5 57 -23 7 -23 -19 0 -35 -4 -35 -10 0 -5 13 -10 29 -10 25
0 28 -3 23 -25 -10 -57 48 -9 154 128 48 61 93 116 101 120 7 4 13 13 13 19 0
6 -3 8 -6 5 -4 -3 -16 -2 -26 4 -14 8 -17 14 -10 21 7 7 18 4 36 -9 l25 -20
-30 -42 c-40 -54 -23 -54 19 1 24 31 29 45 21 54 -6 7 -8 18 -4 24 8 13 -12
40 -30 40 -7 0 -22 -10 -34 -22z m-191 -308 c0 -5 -4 -10 -10 -10 -5 0 -10 5
-10 10 0 6 5 10 10 10 6 0 10 -4 10 -10z"/>
<path d="M82 350 c-12 -10 -18 -21 -14 -24 10 -6 48 31 41 38 -2 2 -14 -4 -27
-14z"/>
<path d="M140 350 c0 -13 167 -13 175 0 4 6 -27 10 -84 10 -54 0 -91 -4 -91
-10z"/>
<path d="M163 313 c20 -2 54 -2 75 0 20 2 3 4 -38 4 -41 0 -58 -2 -37 -4z"/>
<path d="M73 256 c-13 -7 -20 -16 -16 -19 12 -13 28 -7 41 13 14 22 7 24 -25
6z"/>
<path d="M86 164 c-3 -8 -11 -12 -17 -8 -7 4 -10 2 -8 -5 7 -19 22 -15 38 8 7
12 9 21 3 21 -5 0 -13 -7 -16 -16z"/>
</g>
</svg>
