<?xml version="1.0" standalone="no"?>
<!DOCTYPE svg PUBLIC "-//W3C//DTD SVG 20010904//EN"
 "http://www.w3.org/TR/2001/REC-SVG-20010904/DTD/svg10.dtd">
<svg version="1.0" xmlns="http://www.w3.org/2000/svg"
 width="50.000000pt" height="50.000000pt" viewBox="0 0 50.000000 50.000000"
 preserveAspectRatio="xMidYMid meet">

<g transform="translate(0.000000,50.000000) scale(0.100000,-0.100000)"
fill="#000000" stroke="none">
<path d="M75 433 c-17 -2 -36 -13 -43 -23 -13 -21 5 -62 77 -176 27 -43 31
-46 31 -23 0 14 -5 30 -12 37 -9 9 -5 9 15 0 31 -15 42 -37 26 -52 -9 -8 -10
-7 -6 7 4 9 2 17 -3 17 -11 0 -7 -61 5 -80 10 -17 28 -11 23 7 -4 13 1 18 17
18 13 0 21 -5 18 -12 -3 -6 1 -21 7 -32 17 -32 2 -45 -21 -19 l-20 23 11 -23
c6 -13 19 -26 27 -29 9 -4 68 -1 132 6 109 12 139 23 141 53 0 8 -167 237
-203 277 -26 30 -29 31 -110 29 -45 0 -96 -3 -112 -5z m-3 -75 c-10 -10 -15
-10 -22 2 -5 8 -10 24 -10 35 0 19 1 19 22 -3 18 -17 20 -24 10 -34z m248 -10
c25 -34 66 -93 92 -130 54 -76 56 -72 -53 -83 -61 -7 -68 -5 -91 17 -13 14
-22 30 -20 36 3 10 -69 123 -117 182 -11 14 -21 28 -21 33 0 4 37 7 83 7 l82
-1 45 -61z m-195 -47 c7 -17 -14 -43 -28 -34 -6 4 -3 12 9 21 14 11 15 13 3 9
-11 -3 -20 3 -27 17 -10 22 -9 23 14 12 13 -6 26 -17 29 -25z"/>
<path d="M160 381 c0 -16 21 -24 33 -12 6 6 15 11 21 11 5 0 2 -6 -7 -12 -21
-16 -12 -62 10 -54 8 3 19 6 23 6 18 0 32 40 19 56 -13 16 -99 20 -99 5z"/>
<path d="M270 342 c0 -6 5 -14 10 -17 16 -10 12 -25 -5 -19 -24 10 -17 -14 10
-32 14 -9 22 -20 19 -25 -3 -5 -1 -9 5 -9 5 0 11 5 13 10 2 6 8 2 15 -8 10
-17 8 -18 -15 -14 -20 4 -24 2 -19 -12 12 -31 -3 -16 -40 40 -21 31 -39 51
-41 45 -3 -10 28 -61 55 -89 6 -6 15 -21 18 -32 8 -24 62 -28 71 -5 4 8 10 12
15 9 5 -3 7 -10 4 -15 -4 -5 -1 -9 4 -9 19 0 12 13 -49 99 -69 97 -70 98 -70
83z"/>
</g>
</svg>
